<svg width="657" height="604" viewBox="0 0 657 604" fill="none" xmlns="http://www.w3.org/2000/svg">
<path d="M624.886 545.193H482.887L482.362 543.353C484.53 541.645 486.698 540.002 488.933 538.228C583.621 458.193 621.601 356.606 595.514 235.436C585.991 192.986 567.392 153.1 540.993 118.519C514.595 83.9386 481.024 55.4823 442.585 35.1055C404.147 14.7287 361.753 2.91446 318.316 0.474454C274.88 -1.96555 231.429 5.0265 190.951 20.9703C150.472 36.914 113.925 61.4315 83.82 92.8384C53.7148 124.245 30.7654 161.797 16.5483 202.914C2.33127 244.031 -2.81638 287.738 1.45902 331.032C5.73443 374.327 19.3315 416.183 41.3162 453.725C96.4469 547.296 180.753 598.287 289.634 602.492C361.192 605.384 433.013 603.215 504.703 603.281C545.509 603.281 586.315 603.281 627.121 603.281C631.224 603.464 635.319 602.751 639.118 601.19C642.918 599.629 646.332 597.259 649.122 594.244C651.912 591.229 654.011 587.642 655.272 583.732C656.534 579.823 656.928 575.686 656.427 571.609C654.85 555.773 642.365 545.193 624.886 545.193ZM464.751 199.559C476.776 199.784 488.463 203.575 498.33 210.452C508.197 217.329 515.799 226.981 520.173 238.184C524.547 249.387 525.494 261.637 522.896 273.38C520.299 285.123 514.272 295.829 505.58 304.142C496.889 312.455 485.924 317.999 474.077 320.072C462.231 322.144 450.035 320.652 439.038 315.784C428.04 310.916 418.736 302.891 412.306 292.728C405.875 282.565 402.608 270.721 402.918 258.698C403.383 242.692 410.131 227.512 421.703 216.444C433.275 205.376 448.74 199.31 464.751 199.559ZM78.7709 259.946C78.8364 247.93 82.4661 236.203 89.2006 226.25C95.9351 216.298 105.471 208.568 116.602 204.039C127.732 199.51 139.957 198.385 151.727 200.808C163.497 203.23 174.283 209.091 182.72 217.648C191.157 226.205 196.865 237.073 199.122 248.876C201.378 260.679 200.082 272.886 195.396 283.951C190.711 295.017 182.847 304.443 172.801 311.037C162.754 317.63 150.978 321.095 138.961 320.991C122.925 320.749 107.627 314.214 96.3663 302.793C85.1059 291.373 78.7863 275.984 78.7709 259.946ZM188.375 501.627C172.281 501.627 156.846 495.234 145.466 483.854C134.085 472.474 127.692 457.038 127.692 440.944C127.692 424.85 134.085 409.415 145.466 398.035C156.846 386.655 172.281 380.261 188.375 380.261C204.469 380.261 219.904 386.655 231.285 398.035C242.665 409.415 249.058 424.85 249.058 440.944C249.058 457.038 242.665 472.474 231.285 483.854C219.904 495.234 204.469 501.627 188.375 501.627ZM300.542 330.387C294.681 330.387 288.951 328.649 284.078 325.393C279.204 322.137 275.406 317.508 273.163 312.093C270.92 306.678 270.333 300.719 271.476 294.971C272.62 289.222 275.442 283.941 279.587 279.797C283.731 275.652 289.012 272.83 294.761 271.686C300.509 270.543 306.468 271.13 311.883 273.373C317.298 275.616 321.926 279.414 325.183 284.288C328.439 289.161 330.177 294.891 330.177 300.752C330.177 308.612 327.055 316.15 321.497 321.707C315.94 327.265 308.402 330.387 300.542 330.387ZM301.593 192.068C289.578 192.276 277.771 188.909 267.672 182.396C257.573 175.882 249.636 166.516 244.87 155.484C240.103 144.453 238.721 132.254 240.898 120.435C243.076 108.617 248.716 97.7117 257.102 89.1039C265.488 80.4961 276.242 74.5736 287.999 72.0879C299.757 69.6022 311.988 70.6653 323.14 75.1425C334.292 79.6197 343.863 87.309 350.638 97.2346C357.413 107.16 361.086 118.875 361.192 130.892C361.351 146.893 355.172 162.306 344.006 173.768C332.84 185.23 317.593 191.808 301.593 192.068ZM410.606 501.562C398.564 501.679 386.759 498.208 376.697 491.592C366.634 484.976 358.769 475.514 354.103 464.411C349.438 453.309 348.183 441.069 350.499 429.251C352.815 417.433 358.597 406.572 367.107 398.052C375.618 389.531 386.473 383.738 398.289 381.409C410.104 379.08 422.346 380.321 433.453 384.975C444.56 389.628 454.031 397.483 460.658 407.539C467.285 417.594 470.769 429.395 470.665 441.437C470.528 457.329 464.159 472.533 452.927 483.777C441.695 495.021 426.498 501.407 410.606 501.562Z" fill="#FFFFFF"/>
</svg>
